<svg xmlns="http://www.w3.org/2000/svg" width="22" height="22" viewBox="0 0 22 22"><defs><style>.cls-1{fill:#d1d9e0;}.cls-2{fill:#657381;}</style></defs><title>Asset 1</title><g id="Layer_2" data-name="Layer 2"><g id="Layer_1-2" data-name="Layer 1"><g id="Layer_1-2-2" data-name="Layer 1-2"><g id="Gallery"><path class="cls-1" d="M19.22,16a.78.78,0,0,0,.78-.78h0V12L16.62,8.44,9.35,16Z"/><path class="cls-2" d="M10,3.5A2.5,2.5,0,1,0,12.5,6,2.5,2.5,0,0,0,10,3.5ZM10,7a1,1,0,1,1,1-1A1,1,0,0,1,10,7Z"/><path class="cls-2" d="M19.22,0H6.78A2.8,2.8,0,0,0,4,2.78V15.22A2.8,2.8,0,0,0,6.78,18H19.22A2.8,2.8,0,0,0,22,15.22V2.78A2.8,2.8,0,0,0,19.22,0ZM20,15.22a.78.78,0,0,1-.78.78H9.35l7.27-7.56L20,12Zm0-6.16L17.35,6.31a1,1,0,0,0-1.41,0l0,0L6.61,16A.77.77,0,0,1,6,15.22V2.78A.78.78,0,0,1,6.78,2H19.22a.78.78,0,0,1,.78.78h0Z"/><path class="cls-2" d="M16,20H5a3,3,0,0,1-3-3V6A1,1,0,0,0,0,6V17a5,5,0,0,0,5,5H16a1,1,0,0,0,0-2Z"/></g></g></g></g></svg>