<svg xmlns="http://www.w3.org/2000/svg" width="15" height="18" viewBox="0 0 15 18"><defs><style>.cls-1{fill:#d1d9e0;}.cls-2{fill:#657381;}</style></defs><title>Asset 1</title><g id="Layer_2" data-name="Layer 2"><g id="Layer_1-2" data-name="Layer 1"><g id="Layer_1-2-2" data-name="Layer 1-2"><g id="Paragraphy"><path class="cls-1" d="M2,5.5C2,8.45,4,8.92,7,9V2C4,2.08,2,2.55,2,5.5Z"/><path class="cls-2" d="M14,0H7C4,.06,0,.58,0,5.5S4,10.94,7,11v6a1,1,0,0,0,2,0V2h2V17a1,1,0,0,0,2,0V2h1a1,1,0,0,0,0-2ZM7,9c-3-.08-5-.55-5-3.5S4,2.08,7,2Z"/></g></g></g></g></svg>