<svg xmlns="http://www.w3.org/2000/svg" width="24" height="16" viewBox="0 0 24 16"><defs><style>.cls-1{fill:none;}.cls-2{fill:#d1d9e0;}.cls-3{fill:#657381;}</style></defs><title>Asset 3</title><g id="Layer_2" data-name="Layer 2"><g id="Layer_1-2" data-name="Layer 1"><g id="Layer_1-2-2" data-name="Layer 1-2"><g id="video"><rect class="cls-1" x="2" y="2" width="13" height="12" rx="1"/><polygon class="cls-2" points="22 11.06 22 4.94 17.72 8 22 11.06"/><path class="cls-3" d="M23.46,2.11a1,1,0,0,0-1,.08L17,6.06V3a3,3,0,0,0-3-3H3A3,3,0,0,0,0,3V13a3,3,0,0,0,3,3H14a3,3,0,0,0,3-3V9.94l5.42,3.87A1,1,0,0,0,23,14a1,1,0,0,0,.46-.11A1,1,0,0,0,24,13V3A1,1,0,0,0,23.46,2.11Zm-1.46,9L17.72,8,22,4.94ZM15,13a1,1,0,0,1-1,1H3a1,1,0,0,1-1-1V3A1,1,0,0,1,3,2H14a1,1,0,0,1,1,1Z"/></g></g></g></g></svg>