<svg xmlns="http://www.w3.org/2000/svg" width="20" height="20" viewBox="0 0 20 20"><defs><style>.cls-1{fill:#d1d9e0;}.cls-2{fill:#657381;}</style></defs><title>Asset 1</title><g id="Layer_2" data-name="Layer 2"><g id="Layer_1-2" data-name="Layer 1"><g id="Layer_1-2-2" data-name="Layer 1-2"><g id="image"><path class="cls-1" d="M5.41,18H17a1,1,0,0,0,1-1V13.41l-4-4Z"/><path class="cls-2" d="M17,0H3A3,3,0,0,0,0,3V17a3,3,0,0,0,3,3H17a3,3,0,0,0,3-3V3A3,3,0,0,0,17,0ZM2.66,17.93A1,1,0,0,1,2,17V3A1,1,0,0,1,3,2H17a1,1,0,0,1,1,1v7.59l-3.29-3.3a1,1,0,0,0-1.41,0h0ZM18,17a1,1,0,0,1-1,1H5.41L14,9.41l4,4Z"/><path class="cls-2" d="M6.5,9.5a3,3,0,1,0-3-3A3,3,0,0,0,6.5,9.5ZM6.5,5A1.5,1.5,0,1,1,5,6.5,1.5,1.5,0,0,1,6.5,5Z"/></g></g></g></g></svg>